<?xml version="1.0" encoding="UTF-8" standalone="no"?>
<svg width="113px" height="135px" viewBox="0 0 113 135" version="1.1" xmlns="http://www.w3.org/2000/svg" xmlns:xlink="http://www.w3.org/1999/xlink">
    <!-- Generator: Sketch 40.1 (33804) - http://www.bohemiancoding.com/sketch -->
    <title>Artboard</title>
    <desc>Created with Sketch.</desc>
    <defs></defs>
    <g id="Page-1" stroke="none" stroke-width="1" fill="none" fill-rule="evenodd">
        <g id="Artboard">
            <g id="Group">
                <path d="M40.0273438,36.5390625 L40.0273438,134 L0.37890625,134 L0.37890625,10.6911693 C0.37890625,5.17276737 4.84947785,0.69921875 10.3702344,0.69921875 L51.2578125,0.69921875 C66.7526816,0.69921875 78.7642803,4.54032617 87.2929688,12.2226562 C96.7982246,20.8164492 101.550781,31.7212881 101.550781,44.9375 C101.550781,58.4141299 95.6589131,69.7746934 83.875,79.0195312 L106.726562,134 L65.125,134 L45.8867188,91.03125 L45.8867188,56.7539062 L49.0117188,56.7539062 C57.3450938,56.7539062 61.5117188,53.1732129 61.5117188,46.0117188 C61.5117188,39.696583 56.6940586,36.5390625 47.0585938,36.5390625 L40.0273438,36.5390625 Z" id="R-Copy" fill="#E64B42" transform="translate(53.552734, 67.349609) rotate(180.000000) translate(-53.552734, -67.349609) "></path>
                <path d="M46.0273438,36.5390625 L46.0273438,134 L6.37890625,134 L6.37890625,10.6911693 C6.37890625,5.17276737 10.8494779,0.69921875 16.3702344,0.69921875 L57.2578125,0.69921875 C72.7526816,0.69921875 84.7642803,4.54032617 93.2929688,12.2226562 C102.798225,20.8164492 107.550781,31.7212881 107.550781,44.9375 C107.550781,58.4141299 101.658913,69.7746934 89.875,79.0195312 L112.726562,134 L71.125,134 L51.8867188,91.03125 L51.8867188,56.7539062 L55.0117188,56.7539062 C63.3450938,56.7539062 67.5117188,53.1732129 67.5117188,46.0117188 C67.5117188,39.696583 62.6940586,36.5390625 53.0585938,36.5390625 L46.0273438,36.5390625 Z" id="R" fill="#32384A" transform="translate(59.552734, 67.349609) rotate(180.000000) translate(-59.552734, -67.349609) "></path>
            </g>
        </g>
    </g>
</svg>